<?xml version="1.0" encoding="iso-8859-1"?>
<!-- Generator: Adobe Illustrator 18.0.0, SVG Export Plug-In . SVG Version: 6.00 Build 0)  -->
<!DOCTYPE svg PUBLIC "-//W3C//DTD SVG 1.1//EN" "http://www.w3.org/Graphics/SVG/1.1/DTD/svg11.dtd">
<svg version="1.1" id="Capa_1" xmlns="http://www.w3.org/2000/svg" xmlns:xlink="http://www.w3.org/1999/xlink" x="0px" y="0px"
	 viewBox="0 0 295.275 295.275" style="enable-background:new 0 0 295.275 295.275;" xml:space="preserve">
<g>
	<path style="fill:none;" d="M251.337,33.835c0.258,0.83,0.485,1.675,0.679,2.531C251.821,35.509,251.595,34.666,251.337,33.835z"/>
	<polygon style="fill:none;" points="220.267,103.093 220.269,103.096 221.074,101.875 221.069,101.878 	"/>
	<path style="fill:none;" d="M247.775,26.114c0.176,0.282,0.355,0.562,0.523,0.848C248.13,26.676,247.951,26.396,247.775,26.114z"/>
	<path style="fill:none;" d="M245.97,23.508c0.134,0.175,0.268,0.348,0.399,0.525C246.238,23.856,246.104,23.682,245.97,23.508z"/>
	<path style="fill:none;" d="M246.807,24.655c0.195,0.279,0.392,0.556,0.579,0.841C247.2,25.212,247.003,24.934,246.807,24.655z"/>
	<path style="fill:none;" d="M240.863,18.184c-0.315-0.263-0.629-0.528-0.954-0.779c0.276,0.215,0.543,0.441,0.813,0.664
		C240.768,18.108,240.815,18.147,240.863,18.184z"/>
	<path style="fill:none;" d="M239.206,16.887c-0.262-0.192-0.521-0.387-0.789-0.572c0.126,0.087,0.248,0.181,0.373,0.27
		C238.929,16.684,239.068,16.785,239.206,16.887z"/>
	<path style="fill:none;" d="M230.792,12.397c-0.214-0.077-0.428-0.15-0.644-0.222c0.169,0.058,0.338,0.115,0.507,0.175
		C230.701,12.366,230.746,12.381,230.792,12.397z"/>
	<path style="fill:none;" d="M247.182,62.267l-11.664,17.693l0.005-0.003l11.461-17.384l0.202-0.306
		c3.709-5.524,5.656-11.928,5.656-18.559c0-0.289-0.014-0.575-0.022-0.862c0.007,0.287,0.018,0.574,0.018,0.862
		C252.838,50.34,250.891,56.745,247.182,62.267z"/>
	<path style="fill:none;" d="M241.368,18.604c0.444,0.386,0.877,0.783,1.3,1.191c0.006,0.007,0.014,0.013,0.021,0.02
		c0.006,0.006,0.013,0.012,0.019,0.019c-0.46-0.446-0.934-0.877-1.418-1.296c0.005,0.005,0.011,0.009,0.016,0.014
		C241.327,18.568,241.348,18.586,241.368,18.604z"/>
	<path style="fill:none;" d="M244.919,22.203c0.148,0.174,0.292,0.35,0.436,0.526C245.211,22.553,245.066,22.377,244.919,22.203z"/>
	<path style="fill:none;" d="M219.561,10.429h-0.001c0.008,0,0.015,0,0.023,0C219.575,10.429,219.568,10.429,219.561,10.429z"/>
	<path style="fill:none;" d="M233.642,13.574c0.202,0.095,0.402,0.193,0.601,0.292C234.043,13.767,233.844,13.669,233.642,13.574z"
		/>
	<path style="fill:none;" d="M231.958,12.841c0.187,0.076,0.374,0.154,0.56,0.233C232.332,12.994,232.146,12.917,231.958,12.841z"/>
	<path style="fill:none;" d="M235.285,14.4c0.216,0.115,0.427,0.238,0.639,0.358C235.712,14.638,235.5,14.516,235.285,14.4z"/>
	<path style="fill:none;" d="M243.832,20.98c0.138,0.148,0.271,0.3,0.407,0.45C244.103,21.28,243.97,21.128,243.832,20.98z"/>
	<path style="fill:none;" d="M236.881,15.317c0.231,0.141,0.456,0.29,0.684,0.437C237.337,15.607,237.112,15.458,236.881,15.317z"/>
	<path style="fill:none;" d="M248.703,27.693c0.144,0.26,0.292,0.518,0.43,0.783C248.996,28.211,248.847,27.953,248.703,27.693z"/>
	<path style="fill:none;" d="M219.561,60.318c-8.335,0-15.117-6.781-15.117-15.116c0-8.334,6.781-15.115,15.115-15.116h-0.001
		c-8.335,0-15.117,6.781-15.117,15.116s6.781,15.116,15.116,15.116c0.522,0,1.038-0.027,1.546-0.079
		C220.596,60.292,220.082,60.318,219.561,60.318z"/>
	<path style="fill:none;" d="M219.561,49.889c2.585,0,4.687-2.103,4.687-4.687c0-2.584-2.103-4.687-4.687-4.687
		c-2.585,0-4.688,2.103-4.688,4.687C214.873,47.787,216.976,49.889,219.561,49.889z"/>
	<path style="fill:none;" d="M216.099,115.386c0.976,1.4,2.573,2.232,4.277,2.232c0.022,0,0.045,0,0.068-0.001
		c0.072-0.001,0.143-0.012,0.215-0.016c-0.074,0.004-0.145,0.015-0.219,0.016c-0.021,0-0.041,0-0.062,0
		c-1.708,0-3.309-0.837-4.284-2.243l-5.222-7.529l-0.024,0.014L216.099,115.386z"/>
	<path style="fill:none;" d="M228.681,11.709c-0.155-0.044-0.312-0.081-0.467-0.123c0.003,0.001,0.006,0.002,0.01,0.002
		C228.375,11.63,228.529,11.666,228.681,11.709z"/>
	<polygon style="fill:#FDBD1D;" points="267.764,62.717 267.764,62.494 263.348,65.078 	"/>
	<path style="fill:#58D2D4;" d="M224.732,115.273c-0.912,1.384-2.427,2.239-4.073,2.328c-0.072,0.004-0.143,0.015-0.215,0.016
		c-0.023,0.001-0.046,0.001-0.068,0.001c-1.704,0-3.301-0.832-4.277-2.232l-5.25-7.526l-8.352,4.889v74.356l65.268-38.203V74.546
		L241.413,89.97L224.732,115.273z"/>
	<polygon style="fill:#58D2D4;" points="184.199,213.004 118.522,174.561 118.522,242.52 184.202,280.966 184.202,203.791 
		184.199,203.789 	"/>
	<polygon style="fill:#58D2D4;" points="202.495,276.364 267.764,238.16 267.764,172.36 202.495,212.147 	"/>
	<polygon style="fill:#58D2D4;" points="34.962,187.348 100.644,148.902 100.644,74.602 34.962,112.749 	"/>
	<polygon style="fill:#FFFFFF;" points="221.069,101.878 221.074,101.875 235.523,79.958 235.518,79.961 	"/>
	<polygon style="fill:#58D2D4;" points="118.522,153.263 184.202,191.707 184.202,114.515 118.522,75.905 	"/>
	<polygon style="fill:#58D2D4;" points="34.96,276.606 100.644,238.16 100.644,172.252 34.96,212.147 	"/>
	<path style="fill:#FDBD1D;" d="M238.416,16.315c-0.004-0.003-0.009-0.006-0.013-0.009c0.13,0.09,0.256,0.187,0.386,0.279
		C238.664,16.496,238.543,16.402,238.416,16.315z"/>
	<path style="fill:#FDBD1D;" d="M225.11,10.905c-0.252-0.044-0.504-0.09-0.759-0.127c-0.189-0.027-0.379-0.048-0.569-0.072
		c-0.021-0.002-0.043-0.005-0.065-0.008c0.103,0.013,0.205,0.025,0.307,0.039C224.389,10.787,224.75,10.844,225.11,10.905z"/>
	<path style="fill:#FDBD1D;" d="M223.248,10.642c-0.152-0.018-0.303-0.039-0.456-0.054c-0.274-0.027-0.551-0.043-0.827-0.063
		c-0.038-0.003-0.077-0.005-0.115-0.008c0.069,0.005,0.138,0.01,0.207,0.015C222.456,10.563,222.853,10.598,223.248,10.642z"/>
	<path style="fill:#FDBD1D;" d="M221.195,10.47c-0.535-0.026-1.072-0.04-1.613-0.041c-0.008,0-0.015,0-0.023,0
		c0.624,0,1.243,0.023,1.859,0.058C221.344,10.481,221.27,10.474,221.195,10.47z"/>
	<path style="fill:#FDBD1D;" d="M229.013,11.812c-0.079-0.023-0.156-0.052-0.235-0.075c-0.033-0.009-0.065-0.018-0.097-0.028
		c-0.151-0.043-0.306-0.079-0.457-0.12C228.488,11.66,228.751,11.734,229.013,11.812z"/>
	<path style="fill:#FDBD1D;" d="M227.24,11.334c0.042,0.01,0.084,0.02,0.127,0.029c-0.008-0.002-0.016-0.004-0.025-0.006
		c-0.075-0.018-0.151-0.035-0.226-0.052c-0.414-0.097-0.83-0.187-1.249-0.268c-0.127-0.024-0.255-0.045-0.382-0.068
		c-0.019-0.004-0.038-0.006-0.058-0.01c0.153,0.026,0.306,0.052,0.458,0.082C226.34,11.128,226.791,11.228,227.24,11.334z"/>
	<path style="fill:#FDA6B6;" d="M221.069,101.878l14.449-21.918l11.664-17.693c3.709-5.523,5.657-11.927,5.657-18.558
		c0-0.289-0.011-0.575-0.018-0.862c-0.005-0.215-0.007-0.431-0.016-0.645c-0.014-0.302-0.037-0.602-0.059-0.902
		c-0.016-0.216-0.03-0.433-0.049-0.648c-0.028-0.304-0.062-0.605-0.098-0.907c-0.024-0.203-0.05-0.407-0.078-0.609
		c-0.043-0.311-0.09-0.621-0.141-0.928c-0.029-0.178-0.062-0.354-0.095-0.53c-0.061-0.33-0.123-0.66-0.193-0.986
		c-0.023-0.109-0.05-0.217-0.075-0.326c-0.194-0.856-0.42-1.701-0.679-2.531c-0.259-0.83-0.549-1.647-0.869-2.448
		c-0.012-0.031-0.024-0.061-0.036-0.092c-0.164-0.405-0.335-0.807-0.515-1.204c-0.009-0.019-0.017-0.038-0.026-0.058
		c-0.239-0.527-0.493-1.046-0.757-1.558c-0.137-0.265-0.286-0.522-0.43-0.783c-0.135-0.244-0.265-0.49-0.405-0.73
		c-0.168-0.287-0.347-0.567-0.523-0.848c-0.129-0.206-0.255-0.415-0.388-0.618c-0.187-0.285-0.384-0.562-0.579-0.841
		c-0.107-0.152-0.212-0.306-0.322-0.456c-5.481-3.971-12.209-6.322-19.479-6.322c-18.349,0-33.278,14.929-33.278,33.281
		c0,5.903,3.672,17.596,4.524,20.194l22.014,31.74L221.069,101.878z M204.441,45.202c0-8.335,6.781-15.116,15.116-15.116h0.001
		h0.002c8.335,0,15.116,6.781,15.116,15.116c0,7.814-5.96,14.263-13.573,15.038c-0.508,0.052-1.024,0.079-1.546,0.079
		C211.223,60.319,204.441,53.537,204.441,45.202z"/>
	<path style="fill:#B74B00;" d="M204.444,45.202c0,8.335,6.781,15.116,15.117,15.116c0.521,0,1.035-0.027,1.543-0.078
		c7.613-0.775,13.573-7.224,13.573-15.038c0-8.335-6.781-15.116-15.116-15.116h-0.001C211.225,30.088,204.444,36.868,204.444,45.202
		z M219.561,40.515c2.585,0,4.687,2.103,4.687,4.687c0,2.585-2.103,4.687-4.687,4.687c-2.585,0-4.688-2.103-4.688-4.687
		C214.873,42.618,216.976,40.515,219.561,40.515z"/>
	<path style="fill:#B74B00;" d="M275.572,48.877c-1.62-0.93-3.615-0.921-5.228,0.023l-8.233,4.819
		c0.764-3.256,1.159-6.61,1.159-10.01C263.27,19.608,243.662,0,219.561,0c-24.1,0-43.706,19.608-43.706,43.709
		c0,8.642,2.528,17.006,7.31,24.187c0.018,0.027,0.037,0.054,0.055,0.081l15.746,22.703l-9.549,5.59L108.492,48.9
		c-0.007-0.004-0.015-0.006-0.021-0.011c-0.006-0.003-0.012-0.009-0.019-0.012c-0.092-0.052-0.188-0.091-0.282-0.138
		c-0.107-0.053-0.212-0.112-0.321-0.157c-0.105-0.043-0.213-0.073-0.32-0.11c-0.109-0.037-0.217-0.08-0.329-0.109
		c-0.11-0.03-0.223-0.046-0.335-0.068c-0.11-0.021-0.219-0.049-0.331-0.064c-0.116-0.015-0.233-0.017-0.349-0.025
		c-0.109-0.006-0.217-0.019-0.326-0.019c-0.119,0-0.237,0.013-0.355,0.021c-0.107,0.007-0.214,0.009-0.32,0.022
		c-0.119,0.016-0.236,0.045-0.354,0.068c-0.105,0.021-0.209,0.035-0.313,0.063c-0.117,0.031-0.231,0.076-0.346,0.115
		c-0.101,0.035-0.204,0.063-0.303,0.104c-0.112,0.046-0.218,0.106-0.328,0.16c-0.092,0.046-0.187,0.083-0.277,0.135
		c-0.007,0.004-0.012,0.009-0.019,0.012c-0.007,0.004-0.014,0.007-0.021,0.011L19.662,97.811c-1.598,0.936-2.58,2.648-2.58,4.5
		v187.75c0,1.868,1,3.594,2.621,4.523c0.803,0.461,1.698,0.691,2.594,0.691c0.91,0,1.821-0.238,2.634-0.714l80.928-47.369
		l80.923,47.369c0.007,0.004,0.015,0.006,0.021,0.011c0.007,0.004,0.012,0.009,0.019,0.012c0.108,0.062,0.222,0.109,0.333,0.163
		c0.09,0.043,0.177,0.094,0.269,0.131c0.133,0.055,0.27,0.095,0.406,0.139c0.081,0.026,0.16,0.059,0.242,0.081
		c0.151,0.04,0.306,0.065,0.459,0.092c0.07,0.012,0.139,0.032,0.208,0.041c0.224,0.03,0.45,0.044,0.676,0.044
		c0.226,0,0.451-0.015,0.676-0.044c0.069-0.009,0.138-0.028,0.207-0.04c0.154-0.027,0.308-0.051,0.46-0.092
		c0.082-0.021,0.16-0.055,0.241-0.081c0.136-0.044,0.274-0.084,0.407-0.139c0.091-0.038,0.178-0.088,0.267-0.131
		c0.112-0.054,0.226-0.101,0.335-0.164c0.007-0.004,0.012-0.009,0.019-0.012c0.007-0.004,0.015-0.007,0.021-0.011l83.562-48.911
		c1.598-0.935,2.58-2.649,2.58-4.5V53.4C278.192,51.532,277.193,49.806,275.572,48.877z M100.644,172.252v65.908L34.96,276.606
		l-7.449,4.36v-77.174l73.133-42.806V172.252z M100.644,74.602v74.3l-65.683,38.445l-7.451,4.361V105.3l73.133-42.807V74.602z
		 M184.202,280.966l-65.68-38.446l-7.449-4.36v-77.173l73.126,42.802l0.003,0.002V280.966z M184.202,114.515v77.191l-65.68-38.444
		l-7.449-4.36V62.496v-0.002l73.129,42.806V114.515z M198.253,71.353l-6.435-9.278c-3.621-5.454-5.535-11.804-5.535-18.366
		c0-18.35,14.928-33.279,33.276-33.28h0.002c0.007,0,0.015,0,0.022,0c0.541,0.001,1.078,0.015,1.613,0.041
		c0.075,0.004,0.148,0.011,0.223,0.016c0.144,0.01,0.288,0.02,0.432,0.031c0.038,0.003,0.076,0.005,0.115,0.008
		c0.276,0.02,0.553,0.036,0.827,0.063c0.153,0.015,0.305,0.036,0.456,0.054c0.156,0.019,0.313,0.036,0.468,0.056
		c0.021,0.003,0.043,0.005,0.065,0.008c0.189,0.024,0.38,0.045,0.569,0.072c0.255,0.037,0.507,0.083,0.759,0.127
		c0.106,0.019,0.212,0.034,0.317,0.053c0.019,0.003,0.038,0.006,0.058,0.01c0.127,0.023,0.255,0.044,0.382,0.068
		c0.419,0.081,0.835,0.171,1.249,0.268c0.075,0.017,0.151,0.034,0.226,0.052c0.008,0.002,0.016,0.004,0.025,0.006
		c0.285,0.068,0.566,0.147,0.847,0.223c0.155,0.042,0.312,0.079,0.467,0.123c0.032,0.01,0.065,0.019,0.097,0.028
		c0.079,0.023,0.156,0.052,0.235,0.075c0.382,0.114,0.76,0.236,1.136,0.362c0.215,0.073,0.43,0.145,0.644,0.222
		c0.392,0.141,0.781,0.289,1.166,0.444c0.188,0.076,0.374,0.154,0.56,0.233c0.378,0.16,0.753,0.327,1.124,0.5
		c0.202,0.095,0.402,0.193,0.601,0.292c0.35,0.173,0.699,0.349,1.042,0.534c0.215,0.116,0.427,0.238,0.639,0.358
		c0.322,0.183,0.642,0.365,0.957,0.558c0.231,0.141,0.456,0.291,0.684,0.437c0.281,0.182,0.563,0.362,0.839,0.552
		c0.004,0.003,0.009,0.005,0.013,0.009c0.268,0.185,0.527,0.38,0.789,0.572c0.235,0.172,0.473,0.341,0.703,0.519
		c0.325,0.252,0.639,0.516,0.954,0.779c0.141,0.119,0.287,0.231,0.427,0.352c0.485,0.419,0.958,0.85,1.418,1.296
		c0.384,0.372,0.757,0.757,1.124,1.147c0.138,0.148,0.271,0.3,0.407,0.45c0.23,0.255,0.458,0.511,0.68,0.773
		c0.147,0.174,0.292,0.35,0.436,0.526c0.209,0.256,0.413,0.516,0.614,0.778c0.134,0.175,0.268,0.348,0.399,0.525
		c0.04,0.055,0.078,0.111,0.117,0.166c0.11,0.15,0.215,0.304,0.322,0.456c0.195,0.279,0.392,0.556,0.579,0.841
		c0.134,0.203,0.259,0.412,0.388,0.618c0.176,0.282,0.355,0.561,0.523,0.848c0.14,0.24,0.271,0.486,0.405,0.73
		c0.144,0.26,0.293,0.518,0.43,0.783c0.265,0.512,0.519,1.031,0.757,1.558c0.009,0.02,0.017,0.039,0.026,0.058
		c0.179,0.398,0.351,0.799,0.515,1.204c0.012,0.031,0.024,0.061,0.036,0.092c0.321,0.801,0.611,1.617,0.869,2.448
		c0.258,0.83,0.485,1.674,0.679,2.531c0.025,0.109,0.052,0.217,0.075,0.326c0.071,0.327,0.133,0.656,0.193,0.986
		c0.032,0.176,0.065,0.352,0.095,0.53c0.052,0.308,0.098,0.618,0.141,0.928c0.028,0.202,0.053,0.406,0.078,0.609
		c0.036,0.301,0.07,0.603,0.098,0.907c0.02,0.215,0.034,0.431,0.049,0.648c0.022,0.3,0.045,0.6,0.059,0.902
		c0.01,0.214,0.011,0.43,0.016,0.645c0.007,0.287,0.022,0.573,0.022,0.862c0,6.631-1.947,13.035-5.656,18.559l-0.202,0.306
		l-11.461,17.384l-14.449,21.917l-0.805,1.221l-0.002-0.003L198.253,71.353z M267.764,172.36v65.799l-65.269,38.204l-7.864,4.603
		v-77.174l73.133-42.806V172.36z M267.764,62.717v11.828v74.357l-65.268,38.203l-7.866,4.604V105.3l10.296-6.026l5.945,8.572
		l5.222,7.529c0.975,1.406,2.576,2.243,4.284,2.243c0.021,0,0.041,0,0.062,0c0.074-0.001,0.145-0.012,0.219-0.016
		c1.646-0.089,3.161-0.944,4.073-2.328l16.681-25.304l12.938-19.625l8.998-5.267l4.415-2.584V62.717z"/>
</g>
<g>
</g>
<g>
</g>
<g>
</g>
<g>
</g>
<g>
</g>
<g>
</g>
<g>
</g>
<g>
</g>
<g>
</g>
<g>
</g>
<g>
</g>
<g>
</g>
<g>
</g>
<g>
</g>
<g>
</g>
</svg>
